<?xml version="1.0" standalone="no"?>
<!DOCTYPE svg PUBLIC "-//W3C//DTD SVG 20010904//EN"
 "http://www.w3.org/TR/2001/REC-SVG-20010904/DTD/svg10.dtd">
<svg version="1.0" xmlns="http://www.w3.org/2000/svg"
 width="800.000000pt" height="800.000000pt" viewBox="0 0 800.000000 800.000000"
 preserveAspectRatio="xMidYMid meet">

<g transform="translate(0.000000,800.000000) scale(0.100000,-0.100000)"
fill="#000000" stroke="none">
<path d="M0 4000 l0 -4000 4000 0 4000 0 0 4000 0 4000 -4000 0 -4000 0 0
-4000z m4400 3386 c604 -73 1152 -284 1633 -628 300 -215 602 -517 815 -814
354 -496 562 -1051 634 -1689 16 -144 16 -549 -1 -695 -94 -841 -441 -1565
-1023 -2136 -151 -149 -187 -181 -313 -279 -268 -209 -565 -377 -896 -505
-109 -42 -144 -51 -171 -46 -49 9 -68 26 -78 71 -5 22 -10 263 -10 536 0 546
-4 596 -60 751 -39 106 -101 213 -179 305 l-60 72 57 11 c459 92 804 261 1063
519 268 269 407 583 438 996 31 407 -81 791 -322 1098 l-53 68 25 92 c22 83
24 113 25 292 1 217 -9 287 -62 448 l-27 82 -79 3 c-202 8 -487 -94 -759 -271
l-108 -70 -117 26 c-262 58 -458 78 -772 78 -314 0 -523 -21 -767 -77 l-113
-25 -106 71 c-242 162 -483 257 -709 281 -140 15 -145 12 -178 -98 -45 -146
-58 -221 -64 -369 -6 -150 4 -252 37 -377 11 -40 20 -77 20 -83 0 -6 -25 -43
-55 -82 -116 -149 -212 -343 -264 -532 -68 -246 -68 -597 -1 -860 118 -463
422 -817 887 -1031 122 -56 356 -133 488 -160 61 -12 114 -26 119 -30 4 -4
-12 -29 -36 -56 -88 -95 -176 -248 -209 -363 -7 -25 -17 -50 -23 -57 -6 -6
-58 -19 -115 -29 -186 -30 -384 -9 -512 56 -75 39 -138 101 -225 222 -53 74
-134 169 -203 239 -97 97 -129 122 -195 155 -75 37 -85 39 -170 39 -146 0
-213 -49 -154 -112 13 -14 73 -60 133 -103 114 -80 210 -172 239 -228 9 -18
30 -72 47 -120 38 -107 90 -211 136 -274 85 -117 231 -218 383 -266 129 -41
179 -47 398 -47 l212 0 0 -362 c0 -385 -3 -408 -47 -419 -76 -20 -254 40 -525
177 -348 175 -621 372 -904 654 -588 585 -939 1334 -1014 2163 -18 194 -8 628
19 802 98 651 331 1190 735 1700 120 152 381 414 531 534 560 446 1218 707
1930 766 149 12 522 4 675 -14z"/>
</g>
</svg>
